<?xml version="1.0" encoding="UTF-8"?> <svg xmlns="http://www.w3.org/2000/svg" width="85" height="47" viewBox="0 0 85 47" fill="none"><path d="M7.15 19.225C11.4 19.225 13.675 16.375 13.675 12.475C13.675 8.55 11.35 5.7 7.15 5.7C2.95 5.7 0.625 8.55 0.625 12.475C0.625 16.4 2.9 19.225 7.15 19.225ZM7.15 15.85C5.575 15.85 4.55 14.85 4.55 12.475C4.55 10.125 5.55 9.075 7.15 9.075C8.75 9.075 9.75 10.1 9.75 12.475C9.75 14.85 8.75 15.85 7.15 15.85ZM15.0566 19H18.9066V11.75C18.9066 10.175 20.0066 9.2 21.3816 9.2C22.9066 9.2 23.5816 10.1 23.5816 11.6V19H27.4316V10.4C27.4316 7.5 25.4816 5.7 22.5816 5.7C20.8816 5.7 19.7316 6.325 19.0066 7.175H18.9066V0.5H15.0566V19ZM31.1307 4.6C32.6057 4.6 33.4557 3.75 33.4557 2.35C33.4557 0.975 32.6057 0.124999 31.1307 0.124999C29.6057 0.124999 28.8057 0.975 28.8057 2.35C28.8057 3.75 29.6057 4.6 31.1307 4.6ZM29.1807 19H33.0307V5.925H29.1807V19ZM40.6842 19.225C44.9342 19.225 47.2092 16.375 47.2092 12.475C47.2092 8.55 44.8842 5.7 40.6842 5.7C36.4842 5.7 34.1592 8.55 34.1592 12.475C34.1592 16.4 36.4342 19.225 40.6842 19.225ZM40.6842 15.85C39.1092 15.85 38.0842 14.85 38.0842 12.475C38.0842 10.125 39.0842 9.075 40.6842 9.075C42.2842 9.075 43.2842 10.1 43.2842 12.475C43.2842 14.85 42.2842 15.85 40.6842 15.85ZM5.2 41.225C6.825 41.225 7.975 40.65 8.7 39.825H8.8L9.075 41H12.525V32.4C12.525 29.675 10.375 27.7 6.8 27.7C2.95 27.7 1.175 29.8 1.175 32.25H4.775C4.775 31.45 5.475 30.8 6.675 30.8C8.1 30.8 8.675 31.5 8.675 32.4V33.475C8.15 33.3 6.85 33.1 5.875 33.1C2.275 33.1 0.625 34.7 0.625 37.125C0.625 39.45 2.25 41.225 5.2 41.225ZM6.175 38.225C5.025 38.225 4.425 37.675 4.425 36.925C4.425 36.225 5.075 35.675 6.325 35.675C7.075 35.675 7.875 35.775 8.675 36.1V36.225C8.675 37.3 7.75 38.225 6.175 38.225ZM19.9754 46.95C23.6254 46.95 26.3754 44.9 26.3754 41.625V27.925H22.9254L22.5254 29.175H22.4254C21.8004 28.425 20.8004 27.7 18.9504 27.7C15.6504 27.7 13.6504 30.55 13.6504 34.475C13.6504 38.375 15.6504 41.225 18.9504 41.225C20.8004 41.225 21.8004 40.5 22.4254 39.75H22.5254V41.575C22.5254 42.75 21.6754 43.65 19.9754 43.65C18.7754 43.65 17.9004 43 17.8004 42.125H14.0254C14.1004 45.075 16.4504 46.95 19.9754 46.95ZM20.1254 37.85C18.1754 37.85 17.5504 36.3 17.5504 34.475C17.5504 32.65 18.2254 31.075 20.1254 31.075C22.0254 31.075 22.7004 32.65 22.7004 34.475C22.7004 36.3 22.0754 37.85 20.1254 37.85ZM33.9809 41.225C37.5559 41.225 39.6309 39.15 39.9809 36.8H36.2559C36.0309 37.4 35.4059 38.1 33.9809 38.1C32.2309 38.1 31.4559 37.025 31.4309 35.5H40.1559V34.075C40.1559 30.525 37.9059 27.7 33.9059 27.7C29.6559 27.7 27.5059 30.775 27.5059 34.475C27.5059 38.225 29.8559 41.225 33.9809 41.225ZM31.4559 33.075C31.5309 31.825 32.2559 30.85 33.9059 30.85C35.4309 30.85 36.1559 31.825 36.2309 33.075H31.4559ZM41.5225 41H45.3725V33.75C45.3725 32.175 46.3725 31.2 47.7475 31.2C49.2725 31.2 49.9475 32.1 49.9475 33.6V41H53.7975V32.4C53.7975 29.5 51.8475 27.7 48.9475 27.7C47.2475 27.7 46.0975 28.325 45.3725 29.175H45.2725L44.9725 27.925H41.5225V41ZM61.4988 41.225C65.2988 41.225 67.2738 38.875 67.4488 35.85H63.5738C63.4488 37 62.6488 37.85 61.3988 37.85C59.7738 37.85 58.8488 36.825 58.8488 34.45C58.8488 32.1 59.7738 31.075 61.3988 31.075C62.6488 31.075 63.4488 31.925 63.5738 33.075H67.4488C67.2738 30.05 65.2738 27.7 61.3988 27.7C57.2238 27.7 54.9238 30.5 54.9238 34.45C54.9238 38.425 57.3238 41.225 61.4988 41.225ZM70.3771 46.725H74.5521L81.1271 28.175V27.925H76.9771L74.1521 37.2H74.0521L71.4021 27.925H67.4521V28.175L71.6021 41H72.2521L70.3771 46.475V46.725ZM82.0098 41.225C83.4348 41.225 84.2598 40.375 84.2598 38.975C84.2598 37.6 83.4348 36.75 82.0098 36.75C80.5348 36.75 79.7598 37.6 79.7598 38.975C79.7598 40.375 80.5348 41.225 82.0098 41.225Z" fill="#111111"></path></svg> 