<?xml version="1.0" encoding="UTF-8"?> <svg xmlns="http://www.w3.org/2000/svg" width="115" height="48" viewBox="0 0 115 48" fill="none"><path d="M7.15 20.225C11.4 20.225 13.675 17.375 13.675 13.475C13.675 9.55 11.35 6.7 7.15 6.7C2.95 6.7 0.625 9.55 0.625 13.475C0.625 17.4 2.9 20.225 7.15 20.225ZM7.15 16.85C5.575 16.85 4.55 15.85 4.55 13.475C4.55 11.125 5.55 10.075 7.15 10.075C8.75 10.075 9.75 11.1 9.75 13.475C9.75 15.85 8.75 16.85 7.15 16.85ZM15.0566 20H18.9066V12.75C18.9066 11.175 20.0066 10.2 21.3816 10.2C22.9066 10.2 23.5816 11.1 23.5816 12.6V20H27.4316V11.4C27.4316 8.5 25.4816 6.7 22.5816 6.7C20.8816 6.7 19.7316 7.325 19.0066 8.175H18.9066V1.5H15.0566V20ZM31.1307 5.6C32.6057 5.6 33.4557 4.75 33.4557 3.35C33.4557 1.975 32.6057 1.125 31.1307 1.125C29.6057 1.125 28.8057 1.975 28.8057 3.35C28.8057 4.75 29.6057 5.6 31.1307 5.6ZM29.1807 20H33.0307V6.925H29.1807V20ZM40.6842 20.225C44.9342 20.225 47.2092 17.375 47.2092 13.475C47.2092 9.55 44.8842 6.7 40.6842 6.7C36.4842 6.7 34.1592 9.55 34.1592 13.475C34.1592 17.4 36.4342 20.225 40.6842 20.225ZM40.6842 16.85C39.1092 16.85 38.0842 15.85 38.0842 13.475C38.0842 11.125 39.0842 10.075 40.6842 10.075C42.2842 10.075 43.2842 11.1 43.2842 13.475C43.2842 15.85 42.2842 16.85 40.6842 16.85ZM5.2 42.225C6.825 42.225 7.975 41.65 8.7 40.825H8.8L9.075 42H12.525V33.4C12.525 30.675 10.375 28.7 6.8 28.7C2.95 28.7 1.175 30.8 1.175 33.25H4.775C4.775 32.45 5.475 31.8 6.675 31.8C8.1 31.8 8.675 32.5 8.675 33.4V34.475C8.15 34.3 6.85 34.1 5.875 34.1C2.275 34.1 0.625 35.7 0.625 38.125C0.625 40.45 2.25 42.225 5.2 42.225ZM6.175 39.225C5.025 39.225 4.425 38.675 4.425 37.925C4.425 37.225 5.075 36.675 6.325 36.675C7.075 36.675 7.875 36.775 8.675 37.1V37.225C8.675 38.3 7.75 39.225 6.175 39.225ZM19.9754 47.95C23.6254 47.95 26.3754 45.9 26.3754 42.625V28.925H22.9254L22.5254 30.175H22.4254C21.8004 29.425 20.8004 28.7 18.9504 28.7C15.6504 28.7 13.6504 31.55 13.6504 35.475C13.6504 39.375 15.6504 42.225 18.9504 42.225C20.8004 42.225 21.8004 41.5 22.4254 40.75H22.5254V42.575C22.5254 43.75 21.6754 44.65 19.9754 44.65C18.7754 44.65 17.9004 44 17.8004 43.125H14.0254C14.1004 46.075 16.4504 47.95 19.9754 47.95ZM20.1254 38.85C18.1754 38.85 17.5504 37.3 17.5504 35.475C17.5504 33.65 18.2254 32.075 20.1254 32.075C22.0254 32.075 22.7004 33.65 22.7004 35.475C22.7004 37.3 22.0754 38.85 20.1254 38.85ZM33.9809 42.225C37.5559 42.225 39.6309 40.15 39.9809 37.8H36.2559C36.0309 38.4 35.4059 39.1 33.9809 39.1C32.2309 39.1 31.4559 38.025 31.4309 36.5H40.1559V35.075C40.1559 31.525 37.9059 28.7 33.9059 28.7C29.6559 28.7 27.5059 31.775 27.5059 35.475C27.5059 39.225 29.8559 42.225 33.9809 42.225ZM31.4559 34.075C31.5309 32.825 32.2559 31.85 33.9059 31.85C35.4309 31.85 36.1559 32.825 36.2309 34.075H31.4559ZM41.5225 42H45.3725V34.75C45.3725 33.175 46.3725 32.2 47.7475 32.2C49.2725 32.2 49.9475 33.1 49.9475 34.6V42H53.7975V33.4C53.7975 30.5 51.8475 28.7 48.9475 28.7C47.2475 28.7 46.0975 29.325 45.3725 30.175H45.2725L44.9725 28.925H41.5225V42ZM61.4988 42.225C65.2988 42.225 67.2738 39.875 67.4488 36.85H63.5738C63.4488 38 62.6488 38.85 61.3988 38.85C59.7738 38.85 58.8488 37.825 58.8488 35.45C58.8488 33.1 59.7738 32.075 61.3988 32.075C62.6488 32.075 63.4488 32.925 63.5738 34.075H67.4488C67.2738 31.05 65.2738 28.7 61.3988 28.7C57.2238 28.7 54.9238 31.5 54.9238 35.45C54.9238 39.425 57.3238 42.225 61.4988 42.225ZM70.3771 47.725H74.5521L81.1271 29.175V28.925H76.9771L74.1521 38.2H74.0521L71.4021 28.925H67.4521V29.175L71.6021 42H72.2521L70.3771 47.475V47.725ZM82.0098 42.225C83.4348 42.225 84.2598 41.375 84.2598 39.975C84.2598 38.6 83.4348 37.75 82.0098 37.75C80.5348 37.75 79.7598 38.6 79.7598 39.975C79.7598 41.375 80.5348 42.225 82.0098 42.225Z" fill="white"></path></svg> 